<svg width="20" height="20" viewBox="0 0 20 20" fill="none" xmlns="http://www.w3.org/2000/svg">
<path d="M10.832 12.8337C10.832 11.1052 10.832 10.2409 11.3812 9.70396C11.9304 9.16699 12.8143 9.16699 14.582 9.16699C16.3498 9.16699 17.2337 9.16699 17.7829 9.70396C18.332 10.2409 18.332 11.1052 18.332 12.8337V14.667C18.332 16.3955 18.332 17.2597 17.7829 17.7967C17.2337 18.3337 16.3498 18.3337 14.582 18.3337C12.8143 18.3337 11.9304 18.3337 11.3812 17.7967C10.832 17.2597 10.832 16.3955 10.832 14.667V12.8337Z" fill="white"/>
<path d="M1.66797 7.16699C1.66797 8.89548 1.66797 9.75972 2.21714 10.2967C2.76632 10.8337 3.6502 10.8337 5.41797 10.8337C7.18574 10.8337 8.06962 10.8337 8.61879 10.2967C9.16797 9.75972 9.16797 8.89548 9.16797 7.16699V5.33366C9.16797 3.60518 9.16797 2.74093 8.61879 2.20396C8.06962 1.66699 7.18574 1.66699 5.41797 1.66699C3.6502 1.66699 2.76632 1.66699 2.21714 2.20396C1.66797 2.74093 1.66797 3.60518 1.66797 5.33366V7.16699Z" fill="white"/>
<path d="M10.832 4.58366C10.832 3.67766 10.832 3.22466 10.9748 2.86733C11.1651 2.39089 11.5301 2.01235 11.9895 1.815C12.3341 1.66699 12.7709 1.66699 13.6445 1.66699H15.5195C16.3932 1.66699 16.83 1.66699 17.1746 1.815C17.634 2.01235 17.999 2.39089 18.1893 2.86733C18.332 3.22466 18.332 3.67766 18.332 4.58366C18.332 5.48966 18.332 5.94266 18.1893 6.29999C17.999 6.77643 17.634 7.15496 17.1746 7.35231C16.83 7.50033 16.3932 7.50033 15.5195 7.50033H13.6445C12.7709 7.50033 12.3341 7.50033 11.9895 7.35231C11.5301 7.15496 11.1651 6.77643 10.9748 6.29999C10.832 5.94266 10.832 5.48966 10.832 4.58366Z" fill="white"/>
<path d="M1.66797 15.4167C1.66797 16.3227 1.66797 16.7757 1.81069 17.133C2.001 17.6094 2.36601 17.988 2.82544 18.1853C3.17001 18.3333 3.60683 18.3333 4.48047 18.3333H6.35547C7.22911 18.3333 7.66593 18.3333 8.0105 18.1853C8.46993 17.988 8.83494 17.6094 9.02524 17.133C9.16797 16.7757 9.16797 16.3227 9.16797 15.4167C9.16797 14.5107 9.16797 14.0577 9.02524 13.7003C8.83494 13.2239 8.46993 12.8454 8.0105 12.648C7.66593 12.5 7.22911 12.5 6.35547 12.5H4.48047C3.60683 12.5 3.17001 12.5 2.82544 12.648C2.36601 12.8454 2.001 13.2239 1.81069 13.7003C1.66797 14.0577 1.66797 14.5107 1.66797 15.4167Z" fill="white"/>
</svg>
