<svg width="535" height="62" viewBox="0 0 535 62" fill="none" xmlns="http://www.w3.org/2000/svg">
<path d="M0.172031 10.6C0.172031 8.952 0.540031 7.48 1.27603 6.184C2.02803 4.872 3.04403 3.856 4.32403 3.136C5.62003 2.4 7.06803 2.032 8.66803 2.032C10.54 2.032 12.18 2.512 13.588 3.472C14.996 4.432 15.98 5.76 16.54 7.456H12.676C12.292 6.656 11.748 6.056 11.044 5.656C10.356 5.256 9.55603 5.056 8.64403 5.056C7.66803 5.056 6.79603 5.288 6.02803 5.752C5.27603 6.2 4.68403 6.84 4.25203 7.672C3.83603 8.504 3.62803 9.48 3.62803 10.6C3.62803 11.704 3.83603 12.68 4.25203 13.528C4.68403 14.36 5.27603 15.008 6.02803 15.472C6.79603 15.92 7.66803 16.144 8.64403 16.144C9.55603 16.144 10.356 15.944 11.044 15.544C11.748 15.128 12.292 14.52 12.676 13.72H16.54C15.98 15.432 14.996 16.768 13.588 17.728C12.196 18.672 10.556 19.144 8.66803 19.144C7.06803 19.144 5.62003 18.784 4.32403 18.064C3.04403 17.328 2.02803 16.312 1.27603 15.016C0.540031 13.72 0.172031 12.248 0.172031 10.6ZM25.3139 19.216C24.0339 19.216 22.8819 18.936 21.8579 18.376C20.8339 17.8 20.0259 16.992 19.4339 15.952C18.8579 14.912 18.5699 13.712 18.5699 12.352C18.5699 10.992 18.8659 9.792 19.4579 8.752C20.0659 7.712 20.8899 6.912 21.9299 6.352C22.9699 5.776 24.1299 5.488 25.4099 5.488C26.6899 5.488 27.8499 5.776 28.8899 6.352C29.9299 6.912 30.7459 7.712 31.3379 8.752C31.9459 9.792 32.2499 10.992 32.2499 12.352C32.2499 13.712 31.9379 14.912 31.3139 15.952C30.7059 16.992 29.8739 17.8 28.8179 18.376C27.7779 18.936 26.6099 19.216 25.3139 19.216ZM25.3139 16.288C25.9219 16.288 26.4899 16.144 27.0179 15.856C27.5619 15.552 27.9939 15.104 28.3139 14.512C28.6339 13.92 28.7939 13.2 28.7939 12.352C28.7939 11.088 28.4579 10.12 27.7859 9.448C27.1299 8.76 26.3219 8.416 25.3619 8.416C24.4019 8.416 23.5939 8.76 22.9379 9.448C22.2979 10.12 21.9779 11.088 21.9779 12.352C21.9779 13.616 22.2899 14.592 22.9139 15.28C23.5539 15.952 24.3539 16.288 25.3139 16.288ZM42.0826 5.512C43.6666 5.512 44.9466 6.016 45.9226 7.024C46.8986 8.016 47.3866 9.408 47.3866 11.2V19H44.0266V11.656C44.0266 10.6 43.7626 9.792 43.2346 9.232C42.7066 8.656 41.9866 8.368 41.0746 8.368C40.1466 8.368 39.4106 8.656 38.8666 9.232C38.3386 9.792 38.0746 10.6 38.0746 11.656V19H34.7146V5.704H38.0746V7.36C38.5226 6.784 39.0906 6.336 39.7786 6.016C40.4826 5.68 41.2506 5.512 42.0826 5.512ZM57.9498 5.512C59.5338 5.512 60.8138 6.016 61.7898 7.024C62.7658 8.016 63.2538 9.408 63.2538 11.2V19H59.8938V11.656C59.8938 10.6 59.6298 9.792 59.1018 9.232C58.5738 8.656 57.8538 8.368 56.9418 8.368C56.0138 8.368 55.2778 8.656 54.7338 9.232C54.2058 9.792 53.9418 10.6 53.9418 11.656V19H50.5818V5.704H53.9418V7.36C54.3898 6.784 54.9578 6.336 55.6458 6.016C56.3498 5.68 57.1178 5.512 57.9498 5.512ZM78.809 12.064C78.809 12.544 78.777 12.976 78.713 13.36H68.993C69.073 14.32 69.409 15.072 70.001 15.616C70.593 16.16 71.321 16.432 72.185 16.432C73.433 16.432 74.321 15.896 74.849 14.824H78.473C78.089 16.104 77.353 17.16 76.265 17.992C75.177 18.808 73.841 19.216 72.257 19.216C70.977 19.216 69.825 18.936 68.801 18.376C67.793 17.8 67.001 16.992 66.425 15.952C65.865 14.912 65.585 13.712 65.585 12.352C65.585 10.976 65.865 9.768 66.425 8.728C66.985 7.688 67.769 6.888 68.777 6.328C69.785 5.768 70.945 5.488 72.257 5.488C73.521 5.488 74.649 5.76 75.641 6.304C76.649 6.848 77.425 7.624 77.969 8.632C78.529 9.624 78.809 10.768 78.809 12.064ZM75.329 11.104C75.313 10.24 75.001 9.552 74.393 9.04C73.785 8.512 73.041 8.248 72.161 8.248C71.329 8.248 70.625 8.504 70.049 9.016C69.489 9.512 69.145 10.208 69.017 11.104H75.329ZM80.3975 12.352C80.3975 10.976 80.6775 9.776 81.2375 8.752C81.7975 7.712 82.5735 6.912 83.5655 6.352C84.5575 5.776 85.6935 5.488 86.9735 5.488C88.6215 5.488 89.9815 5.904 91.0535 6.736C92.1415 7.552 92.8695 8.704 93.2375 10.192H89.6135C89.4215 9.616 89.0935 9.168 88.6295 8.848C88.1815 8.512 87.6215 8.344 86.9495 8.344C85.9895 8.344 85.2295 8.696 84.6695 9.4C84.1095 10.088 83.8295 11.072 83.8295 12.352C83.8295 13.616 84.1095 14.6 84.6695 15.304C85.2295 15.992 85.9895 16.336 86.9495 16.336C88.3095 16.336 89.1975 15.728 89.6135 14.512H93.2375C92.8695 15.952 92.1415 17.096 91.0535 17.944C89.9655 18.792 88.6055 19.216 86.9735 19.216C85.6935 19.216 84.5575 18.936 83.5655 18.376C82.5735 17.8 81.7975 17 81.2375 15.976C80.6775 14.936 80.3975 13.728 80.3975 12.352ZM99.611 8.464V14.896C99.611 15.344 99.715 15.672 99.923 15.88C100.147 16.072 100.515 16.168 101.027 16.168H102.587V19H100.475C97.643 19 96.227 17.624 96.227 14.872V8.464H94.643V5.704H96.227V2.416H99.611V5.704H102.587V8.464H99.611ZM108.676 15.472L105.868 22.216H103.708L105.268 15.472H108.676ZM116 10.6C116 8.952 116.368 7.48 117.104 6.184C117.856 4.872 118.872 3.856 120.152 3.136C121.448 2.4 122.896 2.032 124.496 2.032C126.368 2.032 128.008 2.512 129.416 3.472C130.824 4.432 131.808 5.76 132.368 7.456H128.504C128.12 6.656 127.576 6.056 126.872 5.656C126.184 5.256 125.384 5.056 124.472 5.056C123.496 5.056 122.624 5.288 121.856 5.752C121.104 6.2 120.512 6.84 120.08 7.672C119.664 8.504 119.456 9.48 119.456 10.6C119.456 11.704 119.664 12.68 120.08 13.528C120.512 14.36 121.104 15.008 121.856 15.472C122.624 15.92 123.496 16.144 124.472 16.144C125.384 16.144 126.184 15.944 126.872 15.544C127.576 15.128 128.12 14.52 128.504 13.72H132.368C131.808 15.432 130.824 16.768 129.416 17.728C128.024 18.672 126.384 19.144 124.496 19.144C122.896 19.144 121.448 18.784 120.152 18.064C118.872 17.328 117.856 16.312 117.104 15.016C116.368 13.72 116 12.248 116 10.6ZM141.142 19.216C139.862 19.216 138.71 18.936 137.686 18.376C136.662 17.8 135.854 16.992 135.262 15.952C134.686 14.912 134.398 13.712 134.398 12.352C134.398 10.992 134.694 9.792 135.286 8.752C135.894 7.712 136.718 6.912 137.758 6.352C138.798 5.776 139.958 5.488 141.238 5.488C142.518 5.488 143.678 5.776 144.718 6.352C145.758 6.912 146.574 7.712 147.166 8.752C147.774 9.792 148.078 10.992 148.078 12.352C148.078 13.712 147.766 14.912 147.142 15.952C146.534 16.992 145.702 17.8 144.646 18.376C143.606 18.936 142.438 19.216 141.142 19.216ZM141.142 16.288C141.75 16.288 142.318 16.144 142.846 15.856C143.39 15.552 143.822 15.104 144.142 14.512C144.462 13.92 144.622 13.2 144.622 12.352C144.622 11.088 144.286 10.12 143.614 9.448C142.958 8.76 142.15 8.416 141.19 8.416C140.23 8.416 139.422 8.76 138.766 9.448C138.126 10.12 137.806 11.088 137.806 12.352C137.806 13.616 138.118 14.592 138.742 15.28C139.382 15.952 140.182 16.288 141.142 16.288ZM153.903 1.24V19H150.543V1.24H153.903ZM160.582 1.24V19H157.222V1.24H160.582ZM163.038 12.304C163.038 10.96 163.302 9.768 163.83 8.728C164.374 7.688 165.102 6.888 166.014 6.328C166.942 5.768 167.974 5.488 169.11 5.488C170.102 5.488 170.966 5.688 171.702 6.088C172.454 6.488 173.054 6.992 173.502 7.6V5.704H176.886V19H173.502V17.056C173.07 17.68 172.47 18.2 171.702 18.616C170.95 19.016 170.078 19.216 169.086 19.216C167.966 19.216 166.942 18.928 166.014 18.352C165.102 17.776 164.374 16.968 163.83 15.928C163.302 14.872 163.038 13.664 163.038 12.304ZM173.502 12.352C173.502 11.536 173.342 10.84 173.022 10.264C172.702 9.672 172.27 9.224 171.726 8.92C171.182 8.6 170.598 8.44 169.974 8.44C169.35 8.44 168.774 8.592 168.246 8.896C167.718 9.2 167.286 9.648 166.95 10.24C166.63 10.816 166.47 11.504 166.47 12.304C166.47 13.104 166.63 13.808 166.95 14.416C167.286 15.008 167.718 15.464 168.246 15.784C168.79 16.104 169.366 16.264 169.974 16.264C170.598 16.264 171.182 16.112 171.726 15.808C172.27 15.488 172.702 15.04 173.022 14.464C173.342 13.872 173.502 13.168 173.502 12.352ZM183.528 7.648C183.96 7.008 184.552 6.488 185.304 6.088C186.072 5.688 186.944 5.488 187.92 5.488C189.056 5.488 190.08 5.768 190.992 6.328C191.92 6.888 192.648 7.688 193.176 8.728C193.72 9.752 193.992 10.944 193.992 12.304C193.992 13.664 193.72 14.872 193.176 15.928C192.648 16.968 191.92 17.776 190.992 18.352C190.08 18.928 189.056 19.216 187.92 19.216C186.928 19.216 186.056 19.024 185.304 18.64C184.568 18.24 183.976 17.728 183.528 17.104V19H180.168V1.24H183.528V7.648ZM190.56 12.304C190.56 11.504 190.392 10.816 190.056 10.24C189.736 9.648 189.304 9.2 188.76 8.896C188.232 8.592 187.656 8.44 187.032 8.44C186.424 8.44 185.848 8.6 185.304 8.92C184.776 9.224 184.344 9.672 184.008 10.264C183.688 10.856 183.528 11.552 183.528 12.352C183.528 13.152 183.688 13.848 184.008 14.44C184.344 15.032 184.776 15.488 185.304 15.808C185.848 16.112 186.424 16.264 187.032 16.264C187.656 16.264 188.232 16.104 188.76 15.784C189.304 15.464 189.736 15.008 190.056 14.416C190.392 13.824 190.56 13.12 190.56 12.304ZM202.337 19.216C201.057 19.216 199.905 18.936 198.881 18.376C197.857 17.8 197.049 16.992 196.457 15.952C195.881 14.912 195.593 13.712 195.593 12.352C195.593 10.992 195.889 9.792 196.481 8.752C197.089 7.712 197.913 6.912 198.953 6.352C199.993 5.776 201.153 5.488 202.433 5.488C203.713 5.488 204.873 5.776 205.913 6.352C206.953 6.912 207.769 7.712 208.361 8.752C208.969 9.792 209.273 10.992 209.273 12.352C209.273 13.712 208.961 14.912 208.337 15.952C207.729 16.992 206.897 17.8 205.841 18.376C204.801 18.936 203.633 19.216 202.337 19.216ZM202.337 16.288C202.945 16.288 203.513 16.144 204.041 15.856C204.585 15.552 205.017 15.104 205.337 14.512C205.657 13.92 205.817 13.2 205.817 12.352C205.817 11.088 205.481 10.12 204.809 9.448C204.153 8.76 203.345 8.416 202.385 8.416C201.425 8.416 200.617 8.76 199.961 9.448C199.321 10.12 199.001 11.088 199.001 12.352C199.001 13.616 199.313 14.592 199.937 15.28C200.577 15.952 201.377 16.288 202.337 16.288ZM215.098 7.768C215.53 7.064 216.09 6.512 216.778 6.112C217.482 5.712 218.282 5.512 219.178 5.512V9.04H218.29C217.234 9.04 216.434 9.288 215.89 9.784C215.362 10.28 215.098 11.144 215.098 12.376V19H211.738V5.704H215.098V7.768ZM220.577 12.304C220.577 10.96 220.841 9.768 221.369 8.728C221.913 7.688 222.641 6.888 223.553 6.328C224.481 5.768 225.513 5.488 226.649 5.488C227.641 5.488 228.505 5.688 229.241 6.088C229.993 6.488 230.593 6.992 231.041 7.6V5.704H234.425V19H231.041V17.056C230.609 17.68 230.009 18.2 229.241 18.616C228.489 19.016 227.617 19.216 226.625 19.216C225.505 19.216 224.481 18.928 223.553 18.352C222.641 17.776 221.913 16.968 221.369 15.928C220.841 14.872 220.577 13.664 220.577 12.304ZM231.041 12.352C231.041 11.536 230.881 10.84 230.561 10.264C230.241 9.672 229.809 9.224 229.265 8.92C228.721 8.6 228.137 8.44 227.513 8.44C226.889 8.44 226.313 8.592 225.785 8.896C225.257 9.2 224.825 9.648 224.489 10.24C224.169 10.816 224.009 11.504 224.009 12.304C224.009 13.104 224.169 13.808 224.489 14.416C224.825 15.008 225.257 15.464 225.785 15.784C226.329 16.104 226.905 16.264 227.513 16.264C228.137 16.264 228.721 16.112 229.265 15.808C229.809 15.488 230.241 15.04 230.561 14.464C230.881 13.872 231.041 13.168 231.041 12.352ZM241.619 8.464V14.896C241.619 15.344 241.723 15.672 241.931 15.88C242.155 16.072 242.523 16.168 243.035 16.168H244.595V19H242.483C239.651 19 238.235 17.624 238.235 14.872V8.464H236.651V5.704H238.235V2.416H241.619V5.704H244.595V8.464H241.619ZM259.371 12.064C259.371 12.544 259.339 12.976 259.275 13.36H249.555C249.635 14.32 249.971 15.072 250.563 15.616C251.155 16.16 251.883 16.432 252.747 16.432C253.995 16.432 254.883 15.896 255.411 14.824H259.035C258.651 16.104 257.915 17.16 256.827 17.992C255.739 18.808 254.403 19.216 252.819 19.216C251.539 19.216 250.387 18.936 249.363 18.376C248.355 17.8 247.563 16.992 246.987 15.952C246.427 14.912 246.147 13.712 246.147 12.352C246.147 10.976 246.427 9.768 246.987 8.728C247.547 7.688 248.331 6.888 249.339 6.328C250.347 5.768 251.507 5.488 252.819 5.488C254.083 5.488 255.211 5.76 256.203 6.304C257.211 6.848 257.987 7.624 258.531 8.632C259.091 9.624 259.371 10.768 259.371 12.064ZM255.891 11.104C255.875 10.24 255.563 9.552 254.955 9.04C254.347 8.512 253.603 8.248 252.723 8.248C251.891 8.248 251.187 8.504 250.611 9.016C250.051 9.512 249.707 10.208 249.579 11.104H255.891ZM265.496 15.472L262.688 22.216H260.528L262.088 15.472H265.496ZM272.772 12.304C272.772 10.96 273.036 9.768 273.564 8.728C274.108 7.688 274.836 6.888 275.748 6.328C276.676 5.768 277.708 5.488 278.844 5.488C279.836 5.488 280.7 5.688 281.436 6.088C282.188 6.488 282.788 6.992 283.236 7.6V5.704H286.62V19H283.236V17.056C282.804 17.68 282.204 18.2 281.436 18.616C280.684 19.016 279.812 19.216 278.82 19.216C277.7 19.216 276.676 18.928 275.748 18.352C274.836 17.776 274.108 16.968 273.564 15.928C273.036 14.872 272.772 13.664 272.772 12.304ZM283.236 12.352C283.236 11.536 283.076 10.84 282.756 10.264C282.436 9.672 282.004 9.224 281.46 8.92C280.916 8.6 280.332 8.44 279.708 8.44C279.084 8.44 278.508 8.592 277.98 8.896C277.452 9.2 277.02 9.648 276.684 10.24C276.364 10.816 276.204 11.504 276.204 12.304C276.204 13.104 276.364 13.808 276.684 14.416C277.02 15.008 277.452 15.464 277.98 15.784C278.524 16.104 279.1 16.264 279.708 16.264C280.332 16.264 280.916 16.112 281.46 15.808C282.004 15.488 282.436 15.04 282.756 14.464C283.076 13.872 283.236 13.168 283.236 12.352ZM297.27 5.512C298.854 5.512 300.134 6.016 301.11 7.024C302.086 8.016 302.574 9.408 302.574 11.2V19H299.214V11.656C299.214 10.6 298.95 9.792 298.422 9.232C297.894 8.656 297.174 8.368 296.262 8.368C295.334 8.368 294.598 8.656 294.054 9.232C293.526 9.792 293.262 10.6 293.262 11.656V19H289.902V5.704H293.262V7.36C293.71 6.784 294.278 6.336 294.966 6.016C295.67 5.68 296.438 5.512 297.27 5.512ZM304.905 12.304C304.905 10.96 305.169 9.768 305.697 8.728C306.241 7.688 306.977 6.888 307.905 6.328C308.833 5.768 309.865 5.488 311.001 5.488C311.865 5.488 312.689 5.68 313.473 6.064C314.257 6.432 314.881 6.928 315.345 7.552V1.24H318.753V19H315.345V17.032C314.929 17.688 314.345 18.216 313.593 18.616C312.841 19.016 311.969 19.216 310.977 19.216C309.857 19.216 308.833 18.928 307.905 18.352C306.977 17.776 306.241 16.968 305.697 15.928C305.169 14.872 304.905 13.664 304.905 12.304ZM315.369 12.352C315.369 11.536 315.209 10.84 314.889 10.264C314.569 9.672 314.137 9.224 313.593 8.92C313.049 8.6 312.465 8.44 311.841 8.44C311.217 8.44 310.641 8.592 310.113 8.896C309.585 9.2 309.153 9.648 308.817 10.24C308.497 10.816 308.337 11.504 308.337 12.304C308.337 13.104 308.497 13.808 308.817 14.416C309.153 15.008 309.585 15.464 310.113 15.784C310.657 16.104 311.233 16.264 311.841 16.264C312.465 16.264 313.049 16.112 313.593 15.808C314.137 15.488 314.569 15.04 314.889 14.464C315.209 13.872 315.369 13.168 315.369 12.352ZM326.938 10.6C326.938 8.952 327.306 7.48 328.042 6.184C328.794 4.872 329.81 3.856 331.09 3.136C332.386 2.4 333.834 2.032 335.434 2.032C337.306 2.032 338.946 2.512 340.354 3.472C341.762 4.432 342.746 5.76 343.306 7.456H339.442C339.058 6.656 338.514 6.056 337.81 5.656C337.122 5.256 336.322 5.056 335.41 5.056C334.434 5.056 333.562 5.288 332.794 5.752C332.042 6.2 331.45 6.84 331.018 7.672C330.602 8.504 330.394 9.48 330.394 10.6C330.394 11.704 330.602 12.68 331.018 13.528C331.45 14.36 332.042 15.008 332.794 15.472C333.562 15.92 334.434 16.144 335.41 16.144C336.322 16.144 337.122 15.944 337.81 15.544C338.514 15.128 339.058 14.52 339.442 13.72H343.306C342.746 15.432 341.762 16.768 340.354 17.728C338.962 18.672 337.322 19.144 335.434 19.144C333.834 19.144 332.386 18.784 331.09 18.064C329.81 17.328 328.794 16.312 328.042 15.016C327.306 13.72 326.938 12.248 326.938 10.6ZM352.08 19.216C350.8 19.216 349.648 18.936 348.624 18.376C347.6 17.8 346.792 16.992 346.2 15.952C345.624 14.912 345.336 13.712 345.336 12.352C345.336 10.992 345.632 9.792 346.224 8.752C346.832 7.712 347.656 6.912 348.696 6.352C349.736 5.776 350.896 5.488 352.176 5.488C353.456 5.488 354.616 5.776 355.656 6.352C356.696 6.912 357.512 7.712 358.104 8.752C358.712 9.792 359.016 10.992 359.016 12.352C359.016 13.712 358.704 14.912 358.08 15.952C357.472 16.992 356.64 17.8 355.584 18.376C354.544 18.936 353.376 19.216 352.08 19.216ZM352.08 16.288C352.688 16.288 353.256 16.144 353.784 15.856C354.328 15.552 354.76 15.104 355.08 14.512C355.4 13.92 355.56 13.2 355.56 12.352C355.56 11.088 355.224 10.12 354.552 9.448C353.896 8.76 353.088 8.416 352.128 8.416C351.168 8.416 350.36 8.76 349.704 9.448C349.064 10.12 348.744 11.088 348.744 12.352C348.744 13.616 349.056 14.592 349.68 15.28C350.32 15.952 351.12 16.288 352.08 16.288ZM368.848 5.512C370.432 5.512 371.712 6.016 372.688 7.024C373.664 8.016 374.152 9.408 374.152 11.2V19H370.792V11.656C370.792 10.6 370.528 9.792 370 9.232C369.472 8.656 368.752 8.368 367.84 8.368C366.912 8.368 366.176 8.656 365.632 9.232C365.104 9.792 364.84 10.6 364.84 11.656V19H361.48V5.704H364.84V7.36C365.288 6.784 365.856 6.336 366.544 6.016C367.248 5.68 368.016 5.512 368.848 5.512ZM381.259 8.464V14.896C381.259 15.344 381.363 15.672 381.571 15.88C381.795 16.072 382.163 16.168 382.675 16.168H384.235V19H382.123C379.291 19 377.875 17.624 377.875 14.872V8.464H376.291V5.704H377.875V2.416H381.259V5.704H384.235V8.464H381.259ZM390.012 7.768C390.444 7.064 391.004 6.512 391.692 6.112C392.396 5.712 393.196 5.512 394.092 5.512V9.04H393.204C392.148 9.04 391.348 9.288 390.804 9.784C390.276 10.28 390.012 11.144 390.012 12.376V19H386.652V5.704H390.012V7.768ZM402.259 19.216C400.979 19.216 399.827 18.936 398.803 18.376C397.779 17.8 396.971 16.992 396.379 15.952C395.803 14.912 395.515 13.712 395.515 12.352C395.515 10.992 395.811 9.792 396.403 8.752C397.011 7.712 397.835 6.912 398.875 6.352C399.915 5.776 401.075 5.488 402.355 5.488C403.635 5.488 404.795 5.776 405.835 6.352C406.875 6.912 407.691 7.712 408.283 8.752C408.891 9.792 409.195 10.992 409.195 12.352C409.195 13.712 408.883 14.912 408.259 15.952C407.651 16.992 406.819 17.8 405.763 18.376C404.723 18.936 403.555 19.216 402.259 19.216ZM402.259 16.288C402.867 16.288 403.435 16.144 403.963 15.856C404.507 15.552 404.939 15.104 405.259 14.512C405.579 13.92 405.739 13.2 405.739 12.352C405.739 11.088 405.403 10.12 404.731 9.448C404.075 8.76 403.267 8.416 402.307 8.416C401.347 8.416 400.539 8.76 399.883 9.448C399.243 10.12 398.923 11.088 398.923 12.352C398.923 13.616 399.235 14.592 399.859 15.28C400.499 15.952 401.299 16.288 402.259 16.288ZM415.02 1.24V19H411.66V1.24H415.02ZM437.354 9.016V11.848H424.298V9.016H437.354ZM299.342 55.168C298.174 55.168 297.118 54.968 296.174 54.568C295.246 54.168 294.51 53.592 293.966 52.84C293.422 52.088 293.142 51.2 293.126 50.176H296.726C296.774 50.864 297.014 51.408 297.446 51.808C297.894 52.208 298.502 52.408 299.27 52.408C300.054 52.408 300.67 52.224 301.118 51.856C301.566 51.472 301.79 50.976 301.79 50.368C301.79 49.872 301.638 49.464 301.334 49.144C301.03 48.824 300.646 48.576 300.182 48.4C299.734 48.208 299.11 48 298.31 47.776C297.222 47.456 296.334 47.144 295.646 46.84C294.974 46.52 294.39 46.048 293.894 45.424C293.414 44.784 293.174 43.936 293.174 42.88C293.174 41.888 293.422 41.024 293.918 40.288C294.414 39.552 295.11 38.992 296.006 38.608C296.902 38.208 297.926 38.008 299.078 38.008C300.806 38.008 302.206 38.432 303.278 39.28C304.366 40.112 304.966 41.28 305.078 42.784H301.382C301.35 42.208 301.102 41.736 300.638 41.368C300.19 40.984 299.59 40.792 298.838 40.792C298.182 40.792 297.654 40.96 297.254 41.296C296.87 41.632 296.678 42.12 296.678 42.76C296.678 43.208 296.822 43.584 297.11 43.888C297.414 44.176 297.782 44.416 298.214 44.608C298.662 44.784 299.286 44.992 300.086 45.232C301.174 45.552 302.062 45.872 302.75 46.192C303.438 46.512 304.03 46.992 304.526 47.632C305.022 48.272 305.27 49.112 305.27 50.152C305.27 51.048 305.038 51.88 304.574 52.648C304.11 53.416 303.43 54.032 302.534 54.496C301.638 54.944 300.574 55.168 299.342 55.168ZM309.887 40.12C309.295 40.12 308.799 39.936 308.399 39.568C308.015 39.184 307.823 38.712 307.823 38.152C307.823 37.592 308.015 37.128 308.399 36.76C308.799 36.376 309.295 36.184 309.887 36.184C310.479 36.184 310.967 36.376 311.351 36.76C311.751 37.128 311.951 37.592 311.951 38.152C311.951 38.712 311.751 39.184 311.351 39.568C310.967 39.936 310.479 40.12 309.887 40.12ZM311.543 41.704V55H308.183V41.704H311.543ZM331.375 41.512C333.007 41.512 334.319 42.016 335.311 43.024C336.319 44.016 336.823 45.408 336.823 47.2V55H333.463V47.656C333.463 46.616 333.199 45.824 332.671 45.28C332.143 44.72 331.423 44.44 330.511 44.44C329.599 44.44 328.871 44.72 328.327 45.28C327.799 45.824 327.535 46.616 327.535 47.656V55H324.175V47.656C324.175 46.616 323.911 45.824 323.383 45.28C322.855 44.72 322.135 44.44 321.223 44.44C320.295 44.44 319.559 44.72 319.015 45.28C318.487 45.824 318.223 46.616 318.223 47.656V55H314.863V41.704H318.223V43.312C318.655 42.752 319.207 42.312 319.879 41.992C320.567 41.672 321.319 41.512 322.135 41.512C323.175 41.512 324.103 41.736 324.919 42.184C325.735 42.616 326.367 43.24 326.815 44.056C327.247 43.288 327.871 42.672 328.687 42.208C329.519 41.744 330.415 41.512 331.375 41.512ZM343.371 43.624C343.803 43.016 344.395 42.512 345.147 42.112C345.915 41.696 346.787 41.488 347.763 41.488C348.899 41.488 349.923 41.768 350.835 42.328C351.763 42.888 352.491 43.688 353.019 44.728C353.563 45.752 353.835 46.944 353.835 48.304C353.835 49.664 353.563 50.872 353.019 51.928C352.491 52.968 351.763 53.776 350.835 54.352C349.923 54.928 348.899 55.216 347.763 55.216C346.787 55.216 345.923 55.016 345.171 54.616C344.435 54.216 343.835 53.712 343.371 53.104V61.336H340.011V41.704H343.371V43.624ZM350.403 48.304C350.403 47.504 350.235 46.816 349.899 46.24C349.579 45.648 349.147 45.2 348.603 44.896C348.075 44.592 347.499 44.44 346.875 44.44C346.267 44.44 345.691 44.6 345.147 44.92C344.619 45.224 344.187 45.672 343.851 46.264C343.531 46.856 343.371 47.552 343.371 48.352C343.371 49.152 343.531 49.848 343.851 50.44C344.187 51.032 344.619 51.488 345.147 51.808C345.691 52.112 346.267 52.264 346.875 52.264C347.499 52.264 348.075 52.104 348.603 51.784C349.147 51.464 349.579 51.008 349.899 50.416C350.235 49.824 350.403 49.12 350.403 48.304ZM359.637 37.24V55H356.277V37.24H359.637ZM364.661 40.12C364.069 40.12 363.573 39.936 363.173 39.568C362.789 39.184 362.597 38.712 362.597 38.152C362.597 37.592 362.789 37.128 363.173 36.76C363.573 36.376 364.069 36.184 364.661 36.184C365.253 36.184 365.741 36.376 366.125 36.76C366.525 37.128 366.725 37.592 366.725 38.152C366.725 38.712 366.525 39.184 366.125 39.568C365.741 39.936 365.253 40.12 364.661 40.12ZM366.317 41.704V55H362.957V41.704H366.317ZM375.732 44.464H373.404V55H369.996V44.464H368.484V41.704H369.996V41.032C369.996 39.4 370.46 38.2 371.388 37.432C372.316 36.664 373.716 36.304 375.588 36.352V39.184C374.772 39.168 374.204 39.304 373.884 39.592C373.564 39.88 373.404 40.4 373.404 41.152V41.704H375.732V44.464ZM379.614 40.12C379.022 40.12 378.526 39.936 378.126 39.568C377.742 39.184 377.55 38.712 377.55 38.152C377.55 37.592 377.742 37.128 378.126 36.76C378.526 36.376 379.022 36.184 379.614 36.184C380.206 36.184 380.694 36.376 381.078 36.76C381.478 37.128 381.678 37.592 381.678 38.152C381.678 38.712 381.478 39.184 381.078 39.568C380.694 39.936 380.206 40.12 379.614 40.12ZM381.27 41.704V55H377.91V41.704H381.27ZM396.95 48.064C396.95 48.544 396.918 48.976 396.854 49.36H387.134C387.214 50.32 387.55 51.072 388.142 51.616C388.734 52.16 389.462 52.432 390.326 52.432C391.574 52.432 392.462 51.896 392.99 50.824H396.614C396.23 52.104 395.494 53.16 394.406 53.992C393.318 54.808 391.982 55.216 390.398 55.216C389.118 55.216 387.966 54.936 386.942 54.376C385.934 53.8 385.142 52.992 384.566 51.952C384.006 50.912 383.726 49.712 383.726 48.352C383.726 46.976 384.006 45.768 384.566 44.728C385.126 43.688 385.91 42.888 386.918 42.328C387.926 41.768 389.086 41.488 390.398 41.488C391.662 41.488 392.79 41.76 393.782 42.304C394.79 42.848 395.566 43.624 396.11 44.632C396.67 45.624 396.95 46.768 396.95 48.064ZM393.47 47.104C393.454 46.24 393.142 45.552 392.534 45.04C391.926 44.512 391.182 44.248 390.302 44.248C389.47 44.248 388.766 44.504 388.19 45.016C387.63 45.512 387.286 46.208 387.158 47.104H393.47ZM398.538 48.304C398.538 46.96 398.802 45.768 399.33 44.728C399.874 43.688 400.61 42.888 401.538 42.328C402.466 41.768 403.498 41.488 404.634 41.488C405.498 41.488 406.322 41.68 407.106 42.064C407.89 42.432 408.514 42.928 408.978 43.552V37.24H412.386V55H408.978V53.032C408.562 53.688 407.978 54.216 407.226 54.616C406.474 55.016 405.602 55.216 404.61 55.216C403.49 55.216 402.466 54.928 401.538 54.352C400.61 53.776 399.874 52.968 399.33 51.928C398.802 50.872 398.538 49.664 398.538 48.304ZM409.002 48.352C409.002 47.536 408.842 46.84 408.522 46.264C408.202 45.672 407.77 45.224 407.226 44.92C406.682 44.6 406.098 44.44 405.474 44.44C404.85 44.44 404.274 44.592 403.746 44.896C403.218 45.2 402.786 45.648 402.45 46.24C402.13 46.816 401.97 47.504 401.97 48.304C401.97 49.104 402.13 49.808 402.45 50.416C402.786 51.008 403.218 51.464 403.746 51.784C404.29 52.104 404.866 52.264 405.474 52.264C406.098 52.264 406.682 52.112 407.226 51.808C407.77 51.488 408.202 51.04 408.522 50.464C408.842 49.872 409.002 49.168 409.002 48.352Z" fill="#202224"/>
<path d="M452.413 19.168C451.245 19.168 450.189 18.968 449.245 18.568C448.317 18.168 447.581 17.592 447.037 16.84C446.493 16.088 446.213 15.2 446.197 14.176H449.797C449.845 14.864 450.085 15.408 450.517 15.808C450.965 16.208 451.573 16.408 452.341 16.408C453.125 16.408 453.741 16.224 454.189 15.856C454.637 15.472 454.861 14.976 454.861 14.368C454.861 13.872 454.709 13.464 454.405 13.144C454.101 12.824 453.717 12.576 453.253 12.4C452.805 12.208 452.181 12 451.381 11.776C450.293 11.456 449.405 11.144 448.717 10.84C448.045 10.52 447.461 10.048 446.965 9.424C446.485 8.784 446.245 7.936 446.245 6.88C446.245 5.888 446.493 5.024 446.989 4.288C447.485 3.552 448.181 2.992 449.077 2.608C449.973 2.208 450.997 2.008 452.149 2.008C453.877 2.008 455.277 2.432 456.349 3.28C457.437 4.112 458.037 5.28 458.149 6.784H454.453C454.421 6.208 454.173 5.736 453.709 5.368C453.261 4.984 452.661 4.792 451.909 4.792C451.253 4.792 450.725 4.96 450.325 5.296C449.941 5.632 449.749 6.12 449.749 6.76C449.749 7.208 449.893 7.584 450.181 7.888C450.485 8.176 450.853 8.416 451.285 8.608C451.733 8.784 452.357 8.992 453.157 9.232C454.245 9.552 455.133 9.872 455.821 10.192C456.509 10.512 457.101 10.992 457.597 11.632C458.093 12.272 458.341 13.112 458.341 14.152C458.341 15.048 458.109 15.88 457.645 16.648C457.181 17.416 456.501 18.032 455.605 18.496C454.709 18.944 453.645 19.168 452.413 19.168ZM467.158 19.216C465.878 19.216 464.726 18.936 463.702 18.376C462.678 17.8 461.87 16.992 461.278 15.952C460.702 14.912 460.414 13.712 460.414 12.352C460.414 10.992 460.71 9.792 461.302 8.752C461.91 7.712 462.734 6.912 463.774 6.352C464.814 5.776 465.974 5.488 467.254 5.488C468.534 5.488 469.694 5.776 470.734 6.352C471.774 6.912 472.59 7.712 473.182 8.752C473.79 9.792 474.094 10.992 474.094 12.352C474.094 13.712 473.782 14.912 473.158 15.952C472.55 16.992 471.718 17.8 470.662 18.376C469.622 18.936 468.454 19.216 467.158 19.216ZM467.158 16.288C467.766 16.288 468.334 16.144 468.862 15.856C469.406 15.552 469.838 15.104 470.158 14.512C470.478 13.92 470.638 13.2 470.638 12.352C470.638 11.088 470.302 10.12 469.63 9.448C468.974 8.76 468.166 8.416 467.206 8.416C466.246 8.416 465.438 8.76 464.782 9.448C464.142 10.12 463.822 11.088 463.822 12.352C463.822 13.616 464.134 14.592 464.758 15.28C465.398 15.952 466.198 16.288 467.158 16.288ZM475.694 12.352C475.694 10.976 475.974 9.776 476.534 8.752C477.094 7.712 477.87 6.912 478.862 6.352C479.854 5.776 480.99 5.488 482.27 5.488C483.918 5.488 485.278 5.904 486.35 6.736C487.438 7.552 488.166 8.704 488.534 10.192H484.91C484.718 9.616 484.39 9.168 483.926 8.848C483.478 8.512 482.918 8.344 482.246 8.344C481.286 8.344 480.526 8.696 479.966 9.4C479.406 10.088 479.126 11.072 479.126 12.352C479.126 13.616 479.406 14.6 479.966 15.304C480.526 15.992 481.286 16.336 482.246 16.336C483.606 16.336 484.494 15.728 484.91 14.512H488.534C488.166 15.952 487.438 17.096 486.35 17.944C485.262 18.792 483.902 19.216 482.27 19.216C480.99 19.216 479.854 18.936 478.862 18.376C477.87 17.8 477.094 17 476.534 15.976C475.974 14.936 475.694 13.728 475.694 12.352ZM492.7 4.12C492.108 4.12 491.612 3.936 491.212 3.568C490.828 3.184 490.636 2.712 490.636 2.152C490.636 1.592 490.828 1.128 491.212 0.759999C491.612 0.375999 492.108 0.183999 492.7 0.183999C493.292 0.183999 493.78 0.375999 494.164 0.759999C494.564 1.128 494.764 1.592 494.764 2.152C494.764 2.712 494.564 3.184 494.164 3.568C493.78 3.936 493.292 4.12 492.7 4.12ZM494.356 5.704V19H490.996V5.704H494.356ZM510.036 12.064C510.036 12.544 510.004 12.976 509.94 13.36H500.22C500.3 14.32 500.636 15.072 501.228 15.616C501.82 16.16 502.548 16.432 503.412 16.432C504.66 16.432 505.548 15.896 506.076 14.824H509.7C509.316 16.104 508.58 17.16 507.492 17.992C506.404 18.808 505.068 19.216 503.484 19.216C502.204 19.216 501.052 18.936 500.028 18.376C499.02 17.8 498.228 16.992 497.652 15.952C497.092 14.912 496.812 13.712 496.812 12.352C496.812 10.976 497.092 9.768 497.652 8.728C498.212 7.688 498.996 6.888 500.004 6.328C501.012 5.768 502.172 5.488 503.484 5.488C504.748 5.488 505.876 5.76 506.868 6.304C507.876 6.848 508.652 7.624 509.196 8.632C509.756 9.624 510.036 10.768 510.036 12.064ZM506.556 11.104C506.54 10.24 506.228 9.552 505.62 9.04C505.012 8.512 504.268 8.248 503.388 8.248C502.556 8.248 501.852 8.504 501.276 9.016C500.716 9.512 500.372 10.208 500.244 11.104H506.556ZM516.4 8.464V14.896C516.4 15.344 516.504 15.672 516.712 15.88C516.936 16.072 517.304 16.168 517.816 16.168H519.376V19H517.264C514.432 19 513.016 17.624 513.016 14.872V8.464H511.432V5.704H513.016V2.416H516.4V5.704H519.376V8.464H516.4ZM534.513 5.704L526.281 25.288H522.705L525.585 18.664L520.257 5.704H524.025L527.457 14.992L530.937 5.704H534.513ZM139.908 38.248V55H136.548V44.104L132.06 55H129.516L125.004 44.104V55H121.644V38.248H125.46L130.788 50.704L136.116 38.248H139.908ZM142.366 48.304C142.366 46.96 142.63 45.768 143.158 44.728C143.702 43.688 144.43 42.888 145.342 42.328C146.27 41.768 147.302 41.488 148.438 41.488C149.43 41.488 150.294 41.688 151.03 42.088C151.782 42.488 152.382 42.992 152.83 43.6V41.704H156.214V55H152.83V53.056C152.398 53.68 151.798 54.2 151.03 54.616C150.278 55.016 149.406 55.216 148.414 55.216C147.294 55.216 146.27 54.928 145.342 54.352C144.43 53.776 143.702 52.968 143.158 51.928C142.63 50.872 142.366 49.664 142.366 48.304ZM152.83 48.352C152.83 47.536 152.67 46.84 152.35 46.264C152.03 45.672 151.598 45.224 151.054 44.92C150.51 44.6 149.926 44.44 149.302 44.44C148.678 44.44 148.102 44.592 147.574 44.896C147.046 45.2 146.614 45.648 146.278 46.24C145.958 46.816 145.798 47.504 145.798 48.304C145.798 49.104 145.958 49.808 146.278 50.416C146.614 51.008 147.046 51.464 147.574 51.784C148.118 52.104 148.694 52.264 149.302 52.264C149.926 52.264 150.51 52.112 151.054 51.808C151.598 51.488 152.03 51.04 152.35 50.464C152.67 49.872 152.83 49.168 152.83 48.352ZM166.864 41.512C168.448 41.512 169.728 42.016 170.704 43.024C171.68 44.016 172.168 45.408 172.168 47.2V55H168.808V47.656C168.808 46.6 168.544 45.792 168.016 45.232C167.488 44.656 166.768 44.368 165.856 44.368C164.928 44.368 164.192 44.656 163.648 45.232C163.12 45.792 162.856 46.6 162.856 47.656V55H159.496V41.704H162.856V43.36C163.304 42.784 163.872 42.336 164.56 42.016C165.264 41.68 166.032 41.512 166.864 41.512ZM174.499 48.304C174.499 46.96 174.763 45.768 175.291 44.728C175.835 43.688 176.563 42.888 177.475 42.328C178.403 41.768 179.435 41.488 180.571 41.488C181.563 41.488 182.427 41.688 183.163 42.088C183.915 42.488 184.515 42.992 184.963 43.6V41.704H188.347V55H184.963V53.056C184.531 53.68 183.931 54.2 183.163 54.616C182.411 55.016 181.539 55.216 180.547 55.216C179.427 55.216 178.403 54.928 177.475 54.352C176.563 53.776 175.835 52.968 175.291 51.928C174.763 50.872 174.499 49.664 174.499 48.304ZM184.963 48.352C184.963 47.536 184.803 46.84 184.483 46.264C184.163 45.672 183.731 45.224 183.187 44.92C182.643 44.6 182.059 44.44 181.435 44.44C180.811 44.44 180.235 44.592 179.707 44.896C179.179 45.2 178.747 45.648 178.411 46.24C178.091 46.816 177.931 47.504 177.931 48.304C177.931 49.104 178.091 49.808 178.411 50.416C178.747 51.008 179.179 51.464 179.707 51.784C180.251 52.104 180.827 52.264 181.435 52.264C182.059 52.264 182.643 52.112 183.187 51.808C183.731 51.488 184.163 51.04 184.483 50.464C184.803 49.872 184.963 49.168 184.963 48.352ZM196.837 41.488C197.829 41.488 198.701 41.688 199.453 42.088C200.205 42.472 200.797 42.976 201.229 43.6V41.704H204.613V55.096C204.613 56.328 204.365 57.424 203.869 58.384C203.373 59.36 202.629 60.128 201.637 60.688C200.645 61.264 199.445 61.552 198.037 61.552C196.149 61.552 194.597 61.112 193.381 60.232C192.181 59.352 191.501 58.152 191.341 56.632H194.677C194.853 57.24 195.229 57.72 195.805 58.072C196.397 58.44 197.109 58.624 197.941 58.624C198.917 58.624 199.709 58.328 200.317 57.736C200.925 57.16 201.229 56.28 201.229 55.096V53.032C200.797 53.656 200.197 54.176 199.429 54.592C198.677 55.008 197.813 55.216 196.837 55.216C195.717 55.216 194.693 54.928 193.765 54.352C192.837 53.776 192.101 52.968 191.557 51.928C191.029 50.872 190.765 49.664 190.765 48.304C190.765 46.96 191.029 45.768 191.557 44.728C192.101 43.688 192.829 42.888 193.741 42.328C194.669 41.768 195.701 41.488 196.837 41.488ZM201.229 48.352C201.229 47.536 201.069 46.84 200.749 46.264C200.429 45.672 199.997 45.224 199.453 44.92C198.909 44.6 198.325 44.44 197.701 44.44C197.077 44.44 196.501 44.592 195.973 44.896C195.445 45.2 195.013 45.648 194.677 46.24C194.357 46.816 194.197 47.504 194.197 48.304C194.197 49.104 194.357 49.808 194.677 50.416C195.013 51.008 195.445 51.464 195.973 51.784C196.517 52.104 197.093 52.264 197.701 52.264C198.325 52.264 198.909 52.112 199.453 51.808C199.997 51.488 200.429 51.04 200.749 50.464C201.069 49.872 201.229 49.168 201.229 48.352ZM220.254 48.064C220.254 48.544 220.222 48.976 220.158 49.36H210.438C210.518 50.32 210.854 51.072 211.446 51.616C212.038 52.16 212.766 52.432 213.63 52.432C214.878 52.432 215.766 51.896 216.294 50.824H219.918C219.534 52.104 218.798 53.16 217.71 53.992C216.622 54.808 215.286 55.216 213.702 55.216C212.422 55.216 211.27 54.936 210.246 54.376C209.238 53.8 208.446 52.992 207.87 51.952C207.31 50.912 207.03 49.712 207.03 48.352C207.03 46.976 207.31 45.768 207.87 44.728C208.43 43.688 209.214 42.888 210.222 42.328C211.23 41.768 212.39 41.488 213.702 41.488C214.966 41.488 216.094 41.76 217.086 42.304C218.094 42.848 218.87 43.624 219.414 44.632C219.974 45.624 220.254 46.768 220.254 48.064ZM216.774 47.104C216.758 46.24 216.446 45.552 215.838 45.04C215.23 44.512 214.486 44.248 213.606 44.248C212.774 44.248 212.07 44.504 211.494 45.016C210.934 45.512 210.59 46.208 210.462 47.104H216.774ZM239.219 41.512C240.851 41.512 242.163 42.016 243.155 43.024C244.163 44.016 244.667 45.408 244.667 47.2V55H241.307V47.656C241.307 46.616 241.043 45.824 240.515 45.28C239.987 44.72 239.267 44.44 238.355 44.44C237.443 44.44 236.715 44.72 236.171 45.28C235.643 45.824 235.379 46.616 235.379 47.656V55H232.019V47.656C232.019 46.616 231.755 45.824 231.227 45.28C230.699 44.72 229.979 44.44 229.067 44.44C228.139 44.44 227.403 44.72 226.859 45.28C226.331 45.824 226.067 46.616 226.067 47.656V55H222.707V41.704H226.067V43.312C226.499 42.752 227.051 42.312 227.723 41.992C228.411 41.672 229.163 41.512 229.979 41.512C231.019 41.512 231.947 41.736 232.763 42.184C233.579 42.616 234.211 43.24 234.659 44.056C235.091 43.288 235.715 42.672 236.531 42.208C237.363 41.744 238.259 41.512 239.219 41.512ZM260.215 48.064C260.215 48.544 260.183 48.976 260.119 49.36H250.399C250.479 50.32 250.815 51.072 251.407 51.616C251.999 52.16 252.727 52.432 253.591 52.432C254.839 52.432 255.727 51.896 256.255 50.824H259.879C259.495 52.104 258.759 53.16 257.671 53.992C256.583 54.808 255.247 55.216 253.663 55.216C252.383 55.216 251.231 54.936 250.207 54.376C249.199 53.8 248.407 52.992 247.831 51.952C247.271 50.912 246.991 49.712 246.991 48.352C246.991 46.976 247.271 45.768 247.831 44.728C248.391 43.688 249.175 42.888 250.183 42.328C251.191 41.768 252.351 41.488 253.663 41.488C254.927 41.488 256.055 41.76 257.047 42.304C258.055 42.848 258.831 43.624 259.375 44.632C259.935 45.624 260.215 46.768 260.215 48.064ZM256.735 47.104C256.719 46.24 256.407 45.552 255.799 45.04C255.191 44.512 254.447 44.248 253.567 44.248C252.735 44.248 252.031 44.504 251.455 45.016C250.895 45.512 250.551 46.208 250.423 47.104H256.735ZM270.036 41.512C271.62 41.512 272.9 42.016 273.876 43.024C274.852 44.016 275.34 45.408 275.34 47.2V55H271.98V47.656C271.98 46.6 271.716 45.792 271.188 45.232C270.66 44.656 269.94 44.368 269.028 44.368C268.1 44.368 267.364 44.656 266.82 45.232C266.292 45.792 266.028 46.6 266.028 47.656V55H262.668V41.704H266.028V43.36C266.476 42.784 267.044 42.336 267.732 42.016C268.436 41.68 269.204 41.512 270.036 41.512ZM282.447 44.464V50.896C282.447 51.344 282.551 51.672 282.759 51.88C282.983 52.072 283.351 52.168 283.863 52.168H285.423V55H283.311C280.479 55 279.063 53.624 279.063 50.872V44.464H277.479V41.704H279.063V38.416H282.447V41.704H285.423V44.464H282.447Z" fill="url(#paint0_linear_1469_124928)"/>
<defs>
<linearGradient id="paint0_linear_1469_124928" x1="-6" y1="29" x2="540" y2="29" gradientUnits="userSpaceOnUse">
<stop stop-color="#FE512E"/>
<stop offset="1" stop-color="#F09619"/>
</linearGradient>
</defs>
</svg>
