<svg width="17" height="17" viewBox="0 0 17 17" fill="none" xmlns="http://www.w3.org/2000/svg">
<path d="M14.8726 7.66036L13.9659 6.60703C13.7926 6.40703 13.6526 6.0337 13.6526 5.76703V4.6337C13.6526 3.92703 13.0726 3.34703 12.3659 3.34703H11.2326C10.9726 3.34703 10.5926 3.20703 10.3926 3.0337L9.33927 2.12703C8.87927 1.7337 8.12594 1.7337 7.65927 2.12703L6.6126 3.04036C6.4126 3.20703 6.0326 3.34703 5.7726 3.34703H4.61927C3.9126 3.34703 3.3326 3.92703 3.3326 4.6337V5.7737C3.3326 6.0337 3.1926 6.40703 3.02594 6.60703L2.12594 7.66703C1.73927 8.12703 1.73927 8.8737 2.12594 9.3337L3.02594 10.3937C3.1926 10.5937 3.3326 10.967 3.3326 11.227V12.367C3.3326 13.0737 3.9126 13.6537 4.61927 13.6537H5.7726C6.0326 13.6537 6.4126 13.7937 6.6126 13.967L7.66594 14.8737C8.12594 15.267 8.87927 15.267 9.34594 14.8737L10.3993 13.967C10.5993 13.7937 10.9726 13.6537 11.2393 13.6537H12.3726C13.0793 13.6537 13.6593 13.0737 13.6593 12.367V11.2337C13.6593 10.9737 13.7993 10.5937 13.9726 10.3937L14.8793 9.34036C15.2659 8.88036 15.2659 8.12036 14.8726 7.66036ZM11.2726 7.24036L8.0526 10.4604C7.95927 10.5537 7.8326 10.607 7.69927 10.607C7.56594 10.607 7.43927 10.5537 7.34594 10.4604L5.7326 8.84703C5.53927 8.6537 5.53927 8.3337 5.7326 8.14036C5.92594 7.94703 6.24594 7.94703 6.43927 8.14036L7.69927 9.40036L10.5659 6.5337C10.7593 6.34036 11.0793 6.34036 11.2726 6.5337C11.4659 6.72703 11.4659 7.04703 11.2726 7.24036Z" fill="#39973D"/>
</svg>
