<svg width="65" height="65" viewBox="0 0 65 65" fill="none" xmlns="http://www.w3.org/2000/svg">
<circle cx="32.5" cy="32.5" r="31" fill="#D3D3D3" stroke="#F4F4F4" stroke-width="3"/>
<path d="M36.3989 28.5883C36.0024 28.5883 35.6384 28.3608 35.4564 28.0098L34.9884 27.0673C34.6894 26.4758 33.9094 25.9883 33.2464 25.9883H31.7579C31.0884 25.9883 30.3084 26.4758 30.0094 27.0673L29.5414 28.0098C29.3594 28.3608 28.9954 28.5883 28.5989 28.5883C27.1884 28.5883 26.0704 29.7778 26.1614 31.1818L26.4994 36.5508C26.5774 37.8898 27.2989 38.9883 29.0929 38.9883H35.9049C37.6989 38.9883 38.4139 37.8898 38.4984 36.5508L38.8364 31.1818C38.9274 29.7778 37.8094 28.5883 36.3989 28.5883ZM31.5239 29.4008H33.4739C33.7404 29.4008 33.9614 29.6218 33.9614 29.8883C33.9614 30.1548 33.7404 30.3758 33.4739 30.3758H31.5239C31.2574 30.3758 31.0364 30.1548 31.0364 29.8883C31.0364 29.6218 31.2574 29.4008 31.5239 29.4008ZM32.4989 36.4663C31.2899 36.4663 30.3019 35.4848 30.3019 34.2693C30.3019 33.0538 31.2834 32.0723 32.4989 32.0723C33.7144 32.0723 34.6959 33.0538 34.6959 34.2693C34.6959 35.4848 33.7079 36.4663 32.4989 36.4663Z" fill="white"/>
</svg>
