<svg width="22" height="22" viewBox="0 0 22 22" fill="none" xmlns="http://www.w3.org/2000/svg">
<path d="M10.944 2.02291L8.73479 7.16541H6.52563C6.15896 7.16541 5.80146 7.19291 5.45312 7.26624L6.36979 5.06625L6.40646 4.98375L6.46146 4.83708C6.48896 4.77291 6.50729 4.71791 6.53479 4.67208C7.59813 2.20624 8.78979 1.43624 10.944 2.02291Z" fill="white"/>
<path d="M17.1685 7.41833L17.1502 7.40917C16.6002 7.25333 16.041 7.17083 15.4727 7.17083H9.73438L11.7969 2.37667L11.8244 2.3125C11.9527 2.35833 12.0902 2.4225 12.2277 2.46833L14.2535 3.32083C15.381 3.78833 16.1694 4.27417 16.6552 4.86083C16.7377 4.97083 16.811 5.07167 16.8844 5.19083C16.9669 5.31917 17.031 5.4475 17.0677 5.585C17.1044 5.6675 17.1319 5.74083 17.1502 5.82333C17.2877 6.29083 17.2969 6.8225 17.1685 7.41833Z" fill="white"/>
<path d="M11.4766 16.1879H11.7057C11.9807 16.1879 12.2099 15.9404 12.2099 15.6379C12.2099 15.2529 12.0999 15.1979 11.8616 15.1062L11.4766 14.9688V16.1879Z" fill="white"/>
<path d="M16.7672 8.73021C16.3547 8.61104 15.9239 8.54688 15.4747 8.54688H6.52802C5.90469 8.54688 5.31802 8.66604 4.76802 8.90438C3.17302 9.59188 2.05469 11.1777 2.05469 13.0202V14.8077C2.05469 15.0277 2.07302 15.2385 2.10052 15.4585C2.30219 18.3735 3.86052 19.9319 6.77552 20.1244C6.98635 20.1519 7.19719 20.1702 7.42635 20.1702H14.5764C17.968 20.1702 19.7555 18.5569 19.9297 15.3485C19.9389 15.1744 19.948 14.991 19.948 14.8077V13.0202C19.948 10.9944 18.6005 9.28938 16.7672 8.73021ZM12.1747 14.2119C12.5964 14.3585 13.1647 14.6702 13.1647 15.6419C13.1647 16.476 12.5139 17.1452 11.7072 17.1452H11.478V17.3469C11.478 17.6127 11.2672 17.8235 11.0014 17.8235C10.7355 17.8235 10.5247 17.6127 10.5247 17.3469V17.1452H10.4422C9.56219 17.1452 8.83802 16.4027 8.83802 15.486C8.83802 15.2202 9.04885 15.0094 9.31469 15.0094C9.58052 15.0094 9.79135 15.2202 9.79135 15.486C9.79135 15.871 10.0847 16.1919 10.4422 16.1919H10.5247V14.6427L9.82802 14.3952C9.40635 14.2485 8.83802 13.9369 8.83802 12.9652C8.83802 12.131 9.48885 11.4619 10.2955 11.4619H10.5247V11.2602C10.5247 10.9944 10.7355 10.7835 11.0014 10.7835C11.2672 10.7835 11.478 10.9944 11.478 11.2602V11.4619H11.5605C12.4405 11.4619 13.1647 12.2044 13.1647 13.121C13.1647 13.3869 12.9539 13.5977 12.688 13.5977C12.4222 13.5977 12.2114 13.3869 12.2114 13.121C12.2114 12.736 11.918 12.4152 11.5605 12.4152H11.478V13.9644L12.1747 14.2119Z" fill="white"/>
<path d="M9.78906 12.9641C9.78906 13.3491 9.89906 13.4041 10.1374 13.4957L10.5224 13.6332V12.4141H10.2932C10.0091 12.4141 9.78906 12.6616 9.78906 12.9641Z" fill="white"/>
</svg>
