<svg width="24" height="24" viewBox="0 0 24 24" fill="none" xmlns="http://www.w3.org/2000/svg">
<path d="M22 16.19L22 7.81C22 4.17 19.83 2 16.19 2L7.82 2C4.17 2 2 4.17 2 7.81L2 16.18C2 19.82 4.17 21.99 7.81 21.99L16.19 21.99C19.83 22 22 19.83 22 16.19ZM11 8C11 7.44 11.45 7 12 7C12.55 7 13 7.45 13 8C13 8.55 12.55 9 12 9C11.45 9 11 8.56 11 8ZM11 12C11 11.44 11.45 11 12 11C12.55 11 13 11.45 13 12C13 12.55 12.55 13 12 13C11.45 13 11 12.56 11 12ZM11 16C11 15.44 11.45 15 12 15C12.55 15 13 15.45 13 16C13 16.55 12.55 17 12 17C11.45 17 11 16.56 11 16Z" fill="white"/>
</svg>
