<svg width="16" height="16" viewBox="0 0 16 16" fill="none" xmlns="http://www.w3.org/2000/svg">
<path d="M12.7806 4.4257C12.494 2.97904 11.4206 2.3457 9.92729 2.3457H4.07396C2.31396 2.3457 1.14062 3.2257 1.14062 5.27904V8.71237C1.14062 10.1924 1.74729 11.059 2.74729 11.4324C2.89396 11.4857 3.05396 11.5324 3.22062 11.559C3.48729 11.619 3.77396 11.6457 4.07396 11.6457H9.93396C11.694 11.6457 12.8673 10.7657 12.8673 8.71237V5.27904C12.8673 4.9657 12.8406 4.6857 12.7806 4.4257ZM3.68729 7.99904C3.68729 8.27237 3.46062 8.49904 3.18729 8.49904C2.91396 8.49904 2.68729 8.27237 2.68729 7.99904V5.99904C2.68729 5.7257 2.91396 5.49904 3.18729 5.49904C3.46062 5.49904 3.68729 5.7257 3.68729 5.99904V7.99904ZM7.00062 8.75904C6.02729 8.75904 5.24062 7.97237 5.24062 6.99904C5.24062 6.0257 6.02729 5.23904 7.00062 5.23904C7.97396 5.23904 8.76062 6.0257 8.76062 6.99904C8.76062 7.97237 7.97396 8.75904 7.00062 8.75904ZM11.3073 7.99904C11.3073 8.27237 11.0806 8.49904 10.8073 8.49904C10.534 8.49904 10.3073 8.27237 10.3073 7.99904V5.99904C10.3073 5.7257 10.534 5.49904 10.8073 5.49904C11.0806 5.49904 11.3073 5.7257 11.3073 5.99904V7.99904Z" fill="#202224"/>
<path d="M14.8704 7.28084V10.7142C14.8704 12.7675 13.6971 13.6542 11.9304 13.6542H6.07709C5.57709 13.6542 5.13042 13.5808 4.74375 13.4342C4.43042 13.3208 4.15709 13.1542 3.93709 12.9408C3.81709 12.8275 3.91042 12.6475 4.07709 12.6475H9.93042C12.3971 12.6475 13.8638 11.1808 13.8638 8.72084V5.28084C13.8638 5.12084 14.0438 5.02084 14.1571 5.14084C14.6104 5.62084 14.8704 6.32084 14.8704 7.28084Z" fill="#202224"/>
</svg>
