<svg width="24" height="25" viewBox="0 0 24 25" fill="none" xmlns="http://www.w3.org/2000/svg">
<path d="M22 16.69L22 8.31C22 4.67 19.83 2.5 16.19 2.5L7.82 2.5C4.17 2.5 2 4.67 2 8.31L2 16.68C2 20.32 4.17 22.49 7.81 22.49L16.19 22.49C19.83 22.5 22 20.33 22 16.69ZM11 8.5C11 7.94 11.45 7.5 12 7.5C12.55 7.5 13 7.95 13 8.5C13 9.05 12.55 9.5 12 9.5C11.45 9.5 11 9.06 11 8.5ZM11 12.5C11 11.94 11.45 11.5 12 11.5C12.55 11.5 13 11.95 13 12.5C13 13.05 12.55 13.5 12 13.5C11.45 13.5 11 13.06 11 12.5ZM11 16.5C11 15.94 11.45 15.5 12 15.5C12.55 15.5 13 15.95 13 16.5C13 17.05 12.55 17.5 12 17.5C11.45 17.5 11 17.06 11 16.5Z" fill="white"/>
</svg>
