<svg width="42" height="42" viewBox="0 0 42 42" fill="none" xmlns="http://www.w3.org/2000/svg">
<rect x="0.5" y="0.5" width="41" height="41" rx="9.5" fill="white"/>
<rect x="0.5" y="0.5" width="41" height="41" rx="9.5" stroke="#D3D3D3"/>
<path d="M29.8722 23.2315L28.648 21.1949C28.3771 20.7507 28.1388 19.8949 28.1388 19.3749V17.349C28.1388 13.4165 24.943 10.2207 21.0213 10.2207C17.0888 10.2315 13.893 13.4165 13.893 17.349V19.364C13.893 19.884 13.6547 20.7399 13.3947 21.184L12.1705 23.2207C11.7046 24.0115 11.5963 24.9107 11.8888 25.6907C12.1813 26.4815 12.8421 27.1099 13.7088 27.3915C14.8788 27.7815 16.0597 28.0632 17.2622 28.269C17.3813 28.2907 17.5005 28.3015 17.6197 28.3232C17.7713 28.3449 17.9338 28.3665 18.0963 28.3882C18.378 28.4315 18.6596 28.464 18.9521 28.4857C19.6346 28.5507 20.328 28.5832 21.0213 28.5832C21.7038 28.5832 22.3863 28.5507 23.058 28.4857C23.3072 28.464 23.5563 28.4424 23.7947 28.4099C23.9897 28.3882 24.1847 28.3665 24.3797 28.334C24.4988 28.3232 24.618 28.3015 24.7372 28.2799C25.9505 28.0849 27.153 27.7815 28.323 27.3915C29.1572 27.1099 29.7963 26.4815 30.0996 25.6799C30.403 24.8674 30.3163 23.979 29.8722 23.2315ZM21.8122 18.8332C21.8122 19.2882 21.4438 19.6565 20.9888 19.6565C20.5338 19.6565 20.1655 19.2882 20.1655 18.8332V15.4749C20.1655 15.0199 20.5338 14.6515 20.9888 14.6515C21.4438 14.6515 21.8122 15.0199 21.8122 15.4749V18.8332Z" fill="#202224"/>
<path d="M24.0661 29.6778C23.6111 30.9345 22.4086 31.8337 21.0003 31.8337C20.1445 31.8337 19.2995 31.487 18.7036 30.8695C18.357 30.5445 18.097 30.1112 17.9453 29.667C18.0861 29.6887 18.227 29.6995 18.3786 29.7212C18.6278 29.7537 18.8878 29.7862 19.1478 29.8078C19.7653 29.862 20.3936 29.8945 21.022 29.8945C21.6395 29.8945 22.257 29.862 22.8636 29.8078C23.0911 29.7862 23.3186 29.7753 23.5353 29.7428C23.7086 29.7212 23.882 29.6995 24.0661 29.6778Z" fill="#202224"/>
</svg>
