<svg width="25" height="24" viewBox="0 0 25 24" fill="none" xmlns="http://www.w3.org/2000/svg">
<path fill-rule="evenodd" clip-rule="evenodd" d="M8.07172 2H16.4527C19.5417 2 21.2617 3.78 21.2617 6.83V17.16C21.2617 20.26 19.5417 22 16.4527 22H8.07172C5.03172 22 3.26172 20.26 3.26172 17.16V6.83C3.26172 3.78 5.03172 2 8.07172 2ZM8.34172 6.66V6.65H11.3307C11.7617 6.65 12.1117 7 12.1117 7.429C12.1117 7.87 11.7617 8.22 11.3307 8.22H8.34172C7.91072 8.22 7.56172 7.87 7.56172 7.44C7.56172 7.01 7.91072 6.66 8.34172 6.66ZM8.34172 12.74H16.1817C16.6117 12.74 16.9617 12.39 16.9617 11.96C16.9617 11.53 16.6117 11.179 16.1817 11.179H8.34172C7.91072 11.179 7.56172 11.53 7.56172 11.96C7.56172 12.39 7.91072 12.74 8.34172 12.74ZM8.34172 17.31H16.1817C16.5807 17.27 16.8817 16.929 16.8817 16.53C16.8817 16.12 16.5807 15.78 16.1817 15.74H8.34172C8.04172 15.71 7.75172 15.85 7.59172 16.11C7.43172 16.36 7.43172 16.69 7.59172 16.95C7.75172 17.2 8.04172 17.35 8.34172 17.31Z" fill="#E74C3C"/>
</svg>
