<svg width="10" height="14" viewBox="0 0 10 14" fill="none" xmlns="http://www.w3.org/2000/svg">
<path d="M9.37449 3.17182C9.31491 3.11216 9.23864 3.08238 9.14593 3.08238H7.44572C7.33296 2.53238 7.12083 2.05495 6.80931 1.65062H9.12594C9.21889 1.65062 9.29495 1.6208 9.35475 1.56129C9.41409 1.50166 9.4439 1.42536 9.4439 1.33258V0.318171C9.4439 0.225324 9.41413 0.14916 9.35475 0.0894681C9.29488 0.0299156 9.21882 0 9.12587 0H0.853292C0.760446 0 0.684281 0.0299156 0.62459 0.0894333C0.565072 0.149125 0.535156 0.22529 0.535156 0.318136V1.64055C0.535156 1.72671 0.566639 1.80127 0.629604 1.86424C0.69257 1.9272 0.767133 1.95869 0.853292 1.95869H2.29506C3.69363 1.95869 4.58191 2.3331 4.9597 3.08221H0.853292C0.760446 3.08221 0.684177 3.11199 0.62459 3.17164C0.565072 3.23137 0.535156 3.3075 0.535156 3.40035V4.41462C0.535156 4.5074 0.564933 4.58366 0.62459 4.64318C0.684281 4.70291 0.760585 4.73262 0.853292 4.73262H5.09911C4.95326 5.27632 4.61349 5.69054 4.07982 5.97559C3.54611 6.26068 2.84196 6.40322 1.96692 6.40322H0.853292C0.767133 6.40322 0.69257 6.43474 0.629604 6.49767C0.566604 6.56067 0.535156 6.63527 0.535156 6.72136V7.98425C0.535156 8.07055 0.564933 8.14344 0.62459 8.20303C1.89724 9.55526 3.54785 11.4476 5.57623 13.8805C5.63595 13.9602 5.71877 13.9999 5.82485 13.9999H7.76368C7.90302 13.9999 7.99921 13.9404 8.05208 13.8208C8.11835 13.7015 8.10536 13.5888 8.01227 13.4827C6.07692 11.1096 4.55551 9.3331 3.44849 8.15323C4.5754 8.02068 5.49017 7.65602 6.19286 7.05955C6.89544 6.46302 7.32293 5.6873 7.4755 4.73279H9.14593C9.23864 4.73279 9.31494 4.70305 9.37449 4.64336C9.43422 4.58384 9.4641 4.50757 9.4641 4.41479V3.40062C9.4641 3.30767 9.43422 3.23151 9.37449 3.17182Z" fill="#E74C3C"/>
</svg>
