<svg width="14" height="14" viewBox="0 0 14 14" fill="none" xmlns="http://www.w3.org/2000/svg">
<path d="M11.3745 3.17182C11.3149 3.11216 11.2386 3.08238 11.1459 3.08238H9.44572C9.33296 2.53238 9.12083 2.05495 8.80931 1.65062H11.1259C11.2189 1.65062 11.295 1.6208 11.3547 1.56129C11.4141 1.50166 11.4439 1.42536 11.4439 1.33258V0.318171C11.4439 0.225324 11.4141 0.14916 11.3547 0.0894681C11.2949 0.0299156 11.2188 0 11.1259 0H2.85329C2.76045 0 2.68428 0.0299156 2.62459 0.0894333C2.56507 0.149125 2.53516 0.22529 2.53516 0.318136V1.64055C2.53516 1.72671 2.56664 1.80127 2.6296 1.86424C2.69257 1.9272 2.76713 1.95869 2.85329 1.95869H4.29506C5.69363 1.95869 6.58191 2.3331 6.9597 3.08221H2.85329C2.76045 3.08221 2.68418 3.11199 2.62459 3.17164C2.56507 3.23137 2.53516 3.3075 2.53516 3.40035V4.41462C2.53516 4.5074 2.56493 4.58366 2.62459 4.64318C2.68428 4.70291 2.76059 4.73262 2.85329 4.73262H7.09911C6.95326 5.27632 6.61349 5.69054 6.07982 5.97559C5.54611 6.26068 4.84196 6.40322 3.96692 6.40322H2.85329C2.76713 6.40322 2.69257 6.43474 2.6296 6.49767C2.5666 6.56067 2.53516 6.63527 2.53516 6.72136V7.98425C2.53516 8.07055 2.56493 8.14344 2.62459 8.20303C3.89724 9.55526 5.54785 11.4476 7.57623 13.8805C7.63595 13.9602 7.71877 13.9999 7.82485 13.9999H9.76368C9.90302 13.9999 9.99921 13.9404 10.0521 13.8208C10.1184 13.7015 10.1054 13.5888 10.0123 13.4827C8.07692 11.1096 6.55551 9.3331 5.44849 8.15323C6.5754 8.02068 7.49017 7.65602 8.19286 7.05955C8.89544 6.46302 9.32293 5.6873 9.4755 4.73279H11.1459C11.2386 4.73279 11.3149 4.70305 11.3745 4.64336C11.4342 4.58384 11.4641 4.50757 11.4641 4.41479V3.40062C11.4641 3.30767 11.4342 3.23151 11.3745 3.17182Z" fill="#39973D"/>
</svg>
