<svg width="11" height="12" viewBox="0 0 11 12" fill="none" xmlns="http://www.w3.org/2000/svg">
<g clip-path="url(#clip0_404_10424)">
<path d="M8.93738 2.99214C8.89056 2.94527 8.83064 2.92187 8.7578 2.92187H7.42192C7.33332 2.48972 7.16665 2.1146 6.92188 1.79691H8.74209C8.81512 1.79691 8.87488 1.77349 8.92187 1.72672C8.96849 1.67988 8.99192 1.61993 8.99192 1.54703V0.749991C8.99192 0.677041 8.96852 0.617197 8.92187 0.570296C8.87483 0.523505 8.81507 0.5 8.74203 0.5H2.24215C2.1692 0.5 2.10936 0.523505 2.06246 0.570269C2.01569 0.61717 1.99219 0.677013 1.99219 0.749964V1.789C1.99219 1.8567 2.01692 1.91529 2.0664 1.96476C2.11587 2.01423 2.17445 2.03897 2.24215 2.03897H3.37497C4.47385 2.03897 5.17178 2.33315 5.46862 2.92174H2.24215C2.1692 2.92174 2.10928 2.94513 2.06246 2.992C2.01569 3.03893 1.99219 3.09875 1.99219 3.1717V3.96863C1.99219 4.04152 2.01558 4.10145 2.06246 4.14821C2.10936 4.19514 2.16931 4.21848 2.24215 4.21848H5.57815C5.46355 4.64568 5.1966 4.97114 4.77728 5.19511C4.35794 5.4191 3.80468 5.5311 3.11715 5.5311H2.24215C2.17445 5.5311 2.11587 5.55587 2.0664 5.60531C2.0169 5.65481 1.99219 5.71342 1.99219 5.78107V6.77334C1.99219 6.84115 2.01558 6.89842 2.06246 6.94524C3.06239 8.0077 4.35931 9.49454 5.95303 11.4061C5.99996 11.4687 6.06503 11.4999 6.14838 11.4999H7.67175C7.78123 11.4999 7.8568 11.4532 7.89834 11.3592C7.95041 11.2655 7.94021 11.1769 7.86706 11.0936C6.34643 9.22895 5.15104 7.83315 4.28124 6.90611C5.16666 6.80196 5.88541 6.51544 6.43752 6.04679C6.98955 5.57808 7.32544 4.96859 7.44531 4.21862H8.7578C8.83064 4.21862 8.89059 4.19525 8.93738 4.14835C8.98431 4.10159 9.00779 4.04166 9.00779 3.96877V3.17192C9.00779 3.09889 8.98431 3.03904 8.93738 2.99214Z" fill="#5678E9"/>
</g>
<defs>
<clipPath id="clip0_404_10424">
<rect width="11" height="11" fill="white" transform="translate(0 0.5)"/>
</clipPath>
</defs>
</svg>
