<svg width="16" height="16" viewBox="0 0 16 16" fill="none" xmlns="http://www.w3.org/2000/svg">
<path d="M12 1.33398H4C2.89333 1.33398 2 2.22065 2 3.31398V10.5873C2 11.6807 2.89333 12.574 4 12.574H4.50667C5.03333 12.574 5.54667 12.7807 5.92 13.154L7.06 14.2807C7.58 14.794 8.42 14.794 8.94 14.2807L10.08 13.154C10.4533 12.7807 10.9667 12.574 11.4933 12.574H12C13.1067 12.574 14 11.6807 14 10.5873V3.31398C14 2.22065 13.1067 1.33398 12 1.33398ZM8 3.70065C8.72 3.70065 9.3 4.28732 9.3 5.00065C9.3 5.70732 8.74 6.27398 8.04667 6.30065C8.02 6.30065 7.98 6.30065 7.94667 6.30065C7.24667 6.27398 6.69333 5.70732 6.69333 5.00065C6.7 4.28732 7.28 3.70065 8 3.70065ZM9.83333 9.79398C8.82667 10.4673 7.17333 10.4673 6.16667 9.79398C5.28 9.20732 5.28 8.23398 6.16667 7.64065C7.18 6.96732 8.83333 6.96732 9.83333 7.64065C10.72 8.23398 10.72 9.20065 9.83333 9.79398Z" fill="#4F46E5"/>
</svg>
