<svg width="161" height="24" viewBox="0 0 161 24" fill="none" xmlns="http://www.w3.org/2000/svg">
<path d="M0.770422 23.6152V1.0709H9.59629C13.4336 1.0709 16.4076 2.05155 18.5181 4.01285C20.6286 5.95284 21.6839 8.72425 21.6839 12.3271C21.6839 15.9299 20.6286 18.712 18.5181 20.6733C16.4076 22.6346 13.4336 23.6152 9.59629 23.6152H0.770422ZM5.72698 19.5541H9.30849C14.1052 19.5541 16.5035 17.1451 16.5035 12.3271C16.5035 7.53041 14.1052 5.13208 9.30849 5.13208H5.72698V19.5541ZM30.4271 23.967C29.2545 23.967 28.2206 23.7431 27.3252 23.2955C26.4298 22.8478 25.7157 22.2402 25.1827 21.4727C24.6711 20.7053 24.4152 19.8419 24.4152 18.8825C24.4152 17.7526 24.7137 16.8466 25.3106 16.1644C25.9075 15.4822 26.8775 15.0026 28.2206 14.7254C29.5637 14.427 31.3438 14.2777 33.5609 14.2777H34.7121V13.7341C34.7121 12.7961 34.4989 12.1352 34.0725 11.7515C33.6462 11.3464 32.9213 11.1439 31.898 11.1439C31.0453 11.1439 30.1393 11.2825 29.1799 11.5596C28.2419 11.8154 27.3039 12.2098 26.3659 12.7428L25.0548 9.51303C25.6091 9.15062 26.2806 8.82018 27.0694 8.52172C27.8795 8.22326 28.7216 7.99942 29.5956 7.85019C30.4697 7.67964 31.3011 7.59437 32.0899 7.59437C34.5202 7.59437 36.3323 8.14865 37.5261 9.25721C38.72 10.3445 39.3169 12.0393 39.3169 14.3417V23.6152H34.808V21.2489C34.4882 22.0803 33.9446 22.7412 33.1772 23.2315C32.431 23.7218 31.5143 23.967 30.4271 23.967ZM31.5143 20.7372C32.4097 20.7372 33.1665 20.4281 33.7847 19.8099C34.403 19.1916 34.7121 18.3922 34.7121 17.4115V16.772H33.5929C31.9513 16.772 30.7895 16.9212 30.1073 17.2197C29.4251 17.4968 29.084 17.9871 29.084 18.6907C29.084 19.2876 29.2865 19.7779 29.6916 20.1616C30.1179 20.5454 30.7255 20.7372 31.5143 20.7372ZM48.9307 23.967C47.545 23.967 46.2552 23.8071 45.0614 23.4873C43.8676 23.1675 42.8762 22.7305 42.0875 22.1762L43.2387 19.0424C44.0274 19.5327 44.9228 19.9271 45.9248 20.2256C46.9481 20.5027 47.9607 20.6413 48.9627 20.6413C49.8581 20.6413 50.5189 20.5027 50.9453 20.2256C51.3717 19.9271 51.5849 19.5434 51.5849 19.0744C51.5849 18.3282 51.0412 17.8592 49.954 17.6674L46.5963 17.0598C45.2533 16.8253 44.23 16.3456 43.5265 15.6208C42.8229 14.896 42.4712 13.9473 42.4712 12.7748C42.4712 11.7088 42.7697 10.7921 43.3666 10.0247C43.9635 9.25721 44.7843 8.66029 45.8289 8.23392C46.8735 7.80755 48.078 7.59437 49.4423 7.59437C50.5722 7.59437 51.6701 7.7436 52.7361 8.04206C53.802 8.3192 54.7187 8.76688 55.4862 9.38512L54.271 12.487C53.6314 12.018 52.864 11.6342 51.9686 11.3358C51.0945 11.0373 50.2738 10.8881 49.5063 10.8881C48.547 10.8881 47.8541 11.048 47.4277 11.3677C47.0014 11.6662 46.7882 12.0499 46.7882 12.5189C46.7882 13.2651 47.2892 13.7341 48.2911 13.926L51.6488 14.5335C53.0345 14.768 54.0898 15.2371 54.8146 15.9406C55.5394 16.6228 55.9019 17.5608 55.9019 18.7546C55.9019 20.3961 55.2623 21.6752 53.9832 22.5919C52.7041 23.5086 51.0199 23.967 48.9307 23.967ZM58.6579 23.6152V1.0709H63.4866V10.0567C64.0409 9.24655 64.755 8.63897 65.6291 8.23392C66.5032 7.80755 67.4732 7.59437 68.5391 7.59437C72.2272 7.59437 74.0712 9.79017 74.0712 14.1818V23.6152H69.2426V14.4056C69.2426 13.3184 69.0401 12.5403 68.635 12.0713C68.23 11.5809 67.633 11.3358 66.8443 11.3358C65.821 11.3358 65.0002 11.6555 64.382 12.2951C63.7851 12.9347 63.4866 13.7874 63.4866 14.8533V23.6152H58.6579Z" fill="url(#paint0_linear_79_7425)"/>
<path d="M86.1501 23.967C84.3807 23.967 82.7072 23.7431 81.1296 23.2955C79.5733 22.8478 78.2729 22.2402 77.2283 21.4727L78.6673 17.5714C79.6693 18.2749 80.8098 18.8292 82.0889 19.2343C83.3893 19.6393 84.7431 19.8419 86.1501 19.8419C87.685 19.8419 88.7829 19.6074 89.4438 19.1383C90.126 18.648 90.4671 18.0404 90.4671 17.3156C90.4671 16.6974 90.2326 16.207 89.7636 15.8446C89.2946 15.4822 88.4738 15.1731 87.3013 14.9173L83.6878 14.1498C79.6586 13.2971 77.644 11.2079 77.644 7.88217C77.644 6.45383 78.0277 5.20669 78.7952 4.14077C79.5627 3.05352 80.6286 2.21144 81.993 1.61452C83.3787 1.0176 84.9776 0.719144 86.7897 0.719144C88.3459 0.719144 89.8062 0.942988 91.1706 1.39068C92.535 1.83837 93.6649 2.46726 94.5603 3.27737L93.1213 6.92283C91.3731 5.53713 89.2519 4.84428 86.7577 4.84428C85.4146 4.84428 84.37 5.11076 83.6239 5.64372C82.899 6.15537 82.5366 6.8269 82.5366 7.65832C82.5366 8.27656 82.7605 8.77754 83.2081 9.16128C83.6558 9.54501 84.434 9.85413 85.5425 10.0886L89.156 10.8561C93.2918 11.7515 95.3597 13.7767 95.3597 16.9319C95.3597 18.3389 94.976 19.5754 94.2085 20.6413C93.4623 21.6859 92.3964 22.5067 91.0107 23.1036C89.6463 23.6792 88.0261 23.967 86.1501 23.967ZM105.65 23.967C101.237 23.967 99.0304 21.8245 99.0304 17.5395V11.5276H96.0565V7.91414H99.0304V3.30934H103.859V7.91414H108.496V11.5276H103.859V17.3476C103.859 18.243 104.062 18.9145 104.467 19.3622C104.893 19.8099 105.565 20.0337 106.481 20.0337C106.758 20.0337 107.046 20.0017 107.345 19.9378C107.664 19.8738 108.005 19.7886 108.368 19.682L109.071 23.1995C108.624 23.434 108.091 23.6152 107.473 23.7431C106.854 23.8924 106.247 23.967 105.65 23.967ZM116.18 23.967C115.007 23.967 113.974 23.7431 113.078 23.2955C112.183 22.8478 111.469 22.2402 110.936 21.4727C110.424 20.7053 110.168 19.8419 110.168 18.8825C110.168 17.7526 110.467 16.8466 111.064 16.1644C111.66 15.4822 112.63 15.0026 113.974 14.7254C115.317 14.427 117.097 14.2777 119.314 14.2777H120.465V13.7341C120.465 12.7961 120.252 12.1352 119.825 11.7515C119.399 11.3464 118.674 11.1439 117.651 11.1439C116.798 11.1439 115.892 11.2825 114.933 11.5596C113.995 11.8154 113.057 12.2098 112.119 12.7428L110.808 9.51303C111.362 9.15062 112.034 8.82018 112.822 8.52172C113.632 8.22326 114.474 7.99942 115.349 7.85019C116.223 7.67964 117.054 7.59437 117.843 7.59437C120.273 7.59437 122.085 8.14865 123.279 9.25721C124.473 10.3445 125.07 12.0393 125.07 14.3417V23.6152H120.561V21.2489C120.241 22.0803 119.698 22.7412 118.93 23.2315C118.184 23.7218 117.267 23.967 116.18 23.967ZM117.267 20.7372C118.163 20.7372 118.919 20.4281 119.538 19.8099C120.156 19.1916 120.465 18.3922 120.465 17.4115V16.772H119.346C117.704 16.772 116.542 16.9212 115.86 17.2197C115.178 17.4968 114.837 17.9871 114.837 18.6907C114.837 19.2876 115.039 19.7779 115.444 20.1616C115.871 20.5454 116.478 20.7372 117.267 20.7372ZM136.314 23.967C134.609 23.967 133.117 23.6366 131.838 22.9757C130.58 22.2935 129.61 21.3342 128.928 20.0977C128.245 18.8612 127.904 17.4009 127.904 15.7167C127.904 14.0326 128.245 12.5829 128.928 11.3677C129.61 10.1526 130.58 9.22523 131.838 8.58568C133.117 7.9248 134.609 7.59437 136.314 7.59437C137.316 7.59437 138.329 7.7436 139.352 8.04206C140.376 8.34051 141.207 8.76688 141.847 9.32117L140.504 12.6469C139.971 12.2205 139.374 11.89 138.713 11.6555C138.052 11.3997 137.412 11.2718 136.794 11.2718C135.536 11.2718 134.556 11.6662 133.852 12.455C133.17 13.2225 132.829 14.3204 132.829 15.7487C132.829 17.1557 133.17 18.2643 133.852 19.0744C134.556 19.8632 135.536 20.2576 136.794 20.2576C137.391 20.2576 138.02 20.1403 138.681 19.9058C139.363 19.6713 139.971 19.3302 140.504 18.8825L141.847 22.2082C141.207 22.7625 140.376 23.1995 139.352 23.5193C138.329 23.8178 137.316 23.967 136.314 23.967ZM143.942 23.6152V1.0709H148.771V14.4056H148.835L154.623 7.91414H160.347L153.696 15.4289L160.667 23.6152H154.847L148.835 16.8359H148.771V23.6152H143.942Z" fill="#202224"/>
<defs>
<linearGradient id="paint0_linear_79_7425" x1="-1.5" y1="12.6152" x2="160.5" y2="12.6152" gradientUnits="userSpaceOnUse">
<stop stop-color="#FE512E"/>
<stop offset="1" stop-color="#F09619"/>
</linearGradient>
</defs>
</svg>
